<!--?xml version="1.0" standalone="no"?-->
              <svg id="sw-js-blob-svg" viewBox="0 0 100 100" xmlns="http://www.w3.org/2000/svg" version="1.1">
                    <defs> 
                        <linearGradient id="sw-gradient" x1="0" x2="1" y1="1" y2="0">
                            <stop id="stop1" stop-color="rgba(247, 198, 33, 1)" offset="0%"></stop>
                            <stop id="stop2" stop-color="rgba(251, 168, 31, 1)" offset="100%"></stop>
                        </linearGradient>
                    </defs>
                <path fill="rgba(247, 198, 33, 1)" d="M21.8,-22.8C28.2,-20.6,33.4,-13.7,33.2,-7C33,-0.3,27.4,6.2,22.4,11.2C17.4,16.3,13,19.9,8.2,21.1C3.3,22.2,-1.9,21,-10.1,20.9C-18.3,20.9,-29.3,22.1,-35.1,17.6C-40.9,13.1,-41.4,2.8,-37.4,-4.3C-33.4,-11.4,-24.9,-15.5,-17.9,-17.6C-10.9,-19.7,-5.4,-19.9,1.1,-21.2C7.7,-22.6,15.4,-25,21.8,-22.8Z" width="100%" height="100%" transform="translate(50 50)" stroke-width="0" style="transition: all 0.3s ease 0s;"></path>
              </svg>